<svg width="24" height="24" viewBox="0 0 24 24" xmlns="http://www.w3.org/2000/svg">
    <g fill="#51545E" fill-rule="nonzero">
        <path d="M0 12C0 5.373 5.373 0 12 0s12 5.373 12 12-5.373 12-12 12S0 18.627 0 12zm16.947-6.8H7.453C6.652 5.2 6 5.844 6 6.642v9.464c0 .798.652 1.442 1.453 1.442h8.035l-.376-1.295.907.833.858.784L18.4 19.2V6.642c0-.798-.652-1.442-1.453-1.442z"/>
        <path d="M14.212 14.342s-.255-.301-.467-.567c.928-.259 1.282-.833 1.282-.833-.29.189-.567.322-.815.413a4.707 4.707 0 0 1-1.027.301 5.023 5.023 0 0 1-1.835-.007 6.003 6.003 0 0 1-1.042-.301 4.176 4.176 0 0 1-.517-.238c-.021-.014-.043-.021-.064-.035-.014-.007-.021-.014-.028-.021-.128-.07-.199-.119-.199-.119s.34.56 1.24.826c-.212.266-.474.581-.474.581-1.566-.049-2.162-1.064-2.162-1.064 0-2.254 1.02-4.081 1.02-4.081 1.021-.756 1.992-.735 1.992-.735l.07.084c-1.275.364-1.863.917-1.863.917s.156-.084.418-.203c.758-.329 1.36-.42 1.609-.441.042-.007.078-.014.12-.014a5.827 5.827 0 0 1 3.564.658s-.56-.525-1.764-.889l.1-.112s.97-.021 1.99.735c0 0 1.02 1.827 1.02 4.081 0 0-.602 1.015-2.168 1.064zM11.117 11.2c-.4 0-.717.36-.717.8 0 .44.323.8.717.8.4 0 .717-.36.717-.8.007-.44-.316-.8-.717-.8zm2.566 0c-.4 0-.717.36-.717.8 0 .44.323.8.717.8.4 0 .717-.36.717-.8 0-.44-.316-.8-.717-.8z"/>
    </g>
</svg>
